0
SECTION
2
HEADER
0
ENDSEC
0
SECTION
2
TABLES
0
TABLE
2
LAYER
0
ENDTAB
0
ENDSEC
0
SECTION
2
ENTITIES
0
LINE
8
0
10
-0.113303
20
1.295054
11
-0.166654
21
1.29067
0
LINE
8
0
10
-0.166654
20
1.29067
11
-0.201384
21
1.487631
0
LINE
8
0
10
-0.201384
20
1.487631
11
-0.319561
21
1.466794
0
LINE
8
0
10
-0.319561
20
1.466794
11
-0.284831
21
1.269832
0
LINE
8
0
10
-0.284831
20
1.269832
11
-0.336465
21
1.255704
0
LINE
8
0
10
0.336465
20
1.255704
11
0.284831
21
1.269832
0
LINE
8
0
10
0.284831
20
1.269832
11
0.319561
21
1.466794
0
LINE
8
0
10
0.319561
20
1.466794
11
0.201384
21
1.487631
0
LINE
8
0
10
0.201384
20
1.487631
11
0.166654
21
1.29067
0
LINE
8
0
10
0.166654
20
1.29067
11
0.113303
21
1.295054
0
LINE
8
0
10
0.549404
20
1.178201
11
0.501008
21
1.20108
0
LINE
8
0
10
0.501008
20
1.20108
11
0.569412
21
1.389019
0
LINE
8
0
10
0.569412
20
1.389019
11
0.456649
21
1.430061
0
LINE
8
0
10
0.456649
20
1.430061
11
0.388245
21
1.242122
0
LINE
8
0
10
0.388245
20
1.242122
11
0.336465
21
1.255704
0
LINE
8
0
10
0.74565
20
1.064898
11
0.701962
21
1.095834
0
LINE
8
0
10
0.701962
20
1.095834
11
0.801962
21
1.269039
0
LINE
8
0
10
0.801962
20
1.269039
11
0.698039
21
1.329039
0
LINE
8
0
10
0.698039
20
1.329039
11
0.598039
21
1.155834
0
LINE
8
0
10
0.598039
20
1.155834
11
0.549404
21
1.178201
0
LINE
8
0
10
0.919239
20
0.919239
11
0.881587
21
0.957291
0
LINE
8
0
10
0.881587
20
0.957291
11
1.010145
21
1.1105
0
LINE
8
0
10
1.010145
20
1.1105
11
0.918219
21
1.187635
0
LINE
8
0
10
0.918219
20
1.187635
11
0.789662
21
1.034426
0
LINE
8
0
10
0.789662
20
1.034426
11
0.74565
21
1.064898
0
LINE
8
0
10
1.064898
20
0.74565
11
1.034426
21
0.789662
0
LINE
8
0
10
1.034426
20
0.789662
11
1.187635
21
0.918219
0
LINE
8
0
10
1.187635
20
0.918219
11
1.1105
21
1.010145
0
LINE
8
0
10
1.1105
20
1.010145
11
0.957291
21
0.881587
0
LINE
8
0
10
0.957291
20
0.881587
11
0.919239
21
0.919239
0
LINE
8
0
10
1.178201
20
0.549404
11
1.155834
21
0.598039
0
LINE
8
0
10
1.155834
20
0.598039
11
1.329039
21
0.698039
0
LINE
8
0
10
1.329039
20
0.698039
11
1.269039
21
0.801962
0
LINE
8
0
10
1.269039
20
0.801962
11
1.095834
21
0.701962
0
LINE
8
0
10
1.095834
20
0.701962
11
1.064898
21
0.74565
0
LINE
8
0
10
1.255704
20
0.336465
11
1.242122
21
0.388245
0
LINE
8
0
10
1.242122
20
0.388245
11
1.430061
21
0.456649
0
LINE
8
0
10
1.430061
20
0.456649
11
1.389019
21
0.569412
0
LINE
8
0
10
1.389019
20
0.569412
11
1.20108
21
0.501008
0
LINE
8
0
10
1.20108
20
0.501008
11
1.178201
21
0.549404
0
LINE
8
0
10
1.295054
20
0.113303
11
1.29067
21
0.166654
0
LINE
8
0
10
1.29067
20
0.166654
11
1.487631
21
0.201384
0
LINE
8
0
10
1.487631
20
0.201384
11
1.466794
21
0.319561
0
LINE
8
0
10
1.466794
20
0.319561
11
1.269832
21
0.284831
0
LINE
8
0
10
1.269832
20
0.284831
11
1.255704
21
0.336465
0
LINE
8
0
10
1.295054
20
-0.113303
11
1.300001
21
-0.06
0
LINE
8
0
10
1.300001
20
-0.06
11
1.500001
21
-0.06
0
LINE
8
0
10
1.500001
20
-0.06
11
1.500001
21
0.06
0
LINE
8
0
10
1.500001
20
0.06
11
1.300001
21
0.06
0
LINE
8
0
10
1.300001
20
0.06
11
1.295054
21
0.113303
0
LINE
8
0
10
1.255704
20
-0.336465
11
1.269832
21
-0.284831
0
LINE
8
0
10
1.269832
20
-0.284831
11
1.466794
21
-0.319561
0
LINE
8
0
10
1.466794
20
-0.319561
11
1.487631
21
-0.201384
0
LINE
8
0
10
1.487631
20
-0.201384
11
1.29067
21
-0.166654
0
LINE
8
0
10
1.29067
20
-0.166654
11
1.295054
21
-0.113303
0
LINE
8
0
10
1.178201
20
-0.549404
11
1.20108
21
-0.501008
0
LINE
8
0
10
1.20108
20
-0.501008
11
1.389019
21
-0.569412
0
LINE
8
0
10
1.389019
20
-0.569412
11
1.430061
21
-0.456649
0
LINE
8
0
10
1.430061
20
-0.456649
11
1.242122
21
-0.388245
0
LINE
8
0
10
1.242122
20
-0.388245
11
1.255704
21
-0.336465
0
LINE
8
0
10
1.064898
20
-0.74565
11
1.095834
21
-0.701962
0
LINE
8
0
10
1.095834
20
-0.701962
11
1.269039
21
-0.801962
0
LINE
8
0
10
1.269039
20
-0.801962
11
1.329039
21
-0.698039
0
LINE
8
0
10
1.329039
20
-0.698039
11
1.155834
21
-0.598039
0
LINE
8
0
10
1.155834
20
-0.598039
11
1.178201
21
-0.549404
0
LINE
8
0
10
0.919239
20
-0.919239
11
0.957291
21
-0.881587
0
LINE
8
0
10
0.957291
20
-0.881587
11
1.1105
21
-1.010145
0
LINE
8
0
10
1.1105
20
-1.010145
11
1.187635
21
-0.918219
0
LINE
8
0
10
1.187635
20
-0.918219
11
1.034426
21
-0.789662
0
LINE
8
0
10
1.034426
20
-0.789662
11
1.064898
21
-0.74565
0
LINE
8
0
10
0.74565
20
-1.064898
11
0.789662
21
-1.034426
0
LINE
8
0
10
0.789662
20
-1.034426
11
0.918219
21
-1.187635
0
LINE
8
0
10
0.918219
20
-1.187635
11
1.010145
21
-1.1105
0
LINE
8
0
10
1.010145
20
-1.1105
11
0.881587
21
-0.957291
0
LINE
8
0
10
0.881587
20
-0.957291
11
0.919239
21
-0.919239
0
LINE
8
0
10
0.549404
20
-1.178201
11
0.598039
21
-1.155834
0
LINE
8
0
10
0.598039
20
-1.155834
11
0.698039
21
-1.329039
0
LINE
8
0
10
0.698039
20
-1.329039
11
0.801962
21
-1.269039
0
LINE
8
0
10
0.801962
20
-1.269039
11
0.701962
21
-1.095834
0
LINE
8
0
10
0.701962
20
-1.095834
11
0.74565
21
-1.064898
0
LINE
8
0
10
0.336465
20
-1.255704
11
0.388245
21
-1.242122
0
LINE
8
0
10
0.388245
20
-1.242122
11
0.456649
21
-1.430061
0
LINE
8
0
10
0.456649
20
-1.430061
11
0.569412
21
-1.389019
0
LINE
8
0
10
0.569412
20
-1.389019
11
0.501008
21
-1.20108
0
LINE
8
0
10
0.501008
20
-1.20108
11
0.549404
21
-1.178201
0
LINE
8
0
10
0.113303
20
-1.295054
11
0.166654
21
-1.29067
0
LINE
8
0
10
0.166654
20
-1.29067
11
0.201384
21
-1.487631
0
LINE
8
0
10
0.201384
20
-1.487631
11
0.319561
21
-1.466794
0
LINE
8
0
10
0.319561
20
-1.466794
11
0.284831
21
-1.269832
0
LINE
8
0
10
0.284831
20
-1.269832
11
0.336465
21
-1.255704
0
LINE
8
0
10
-0.113303
20
-1.295054
11
-0.06
21
-1.300001
0
LINE
8
0
10
-0.06
20
-1.300001
11
-0.06
21
-1.500001
0
LINE
8
0
10
-0.06
20
-1.500001
11
0.06
21
-1.500001
0
LINE
8
0
10
0.06
20
-1.500001
11
0.06
21
-1.300001
0
LINE
8
0
10
0.06
20
-1.300001
11
0.113303
21
-1.295054
0
LINE
8
0
10
-0.336465
20
-1.255704
11
-0.284831
21
-1.269832
0
LINE
8
0
10
-0.284831
20
-1.269832
11
-0.319561
21
-1.466794
0
LINE
8
0
10
-0.319561
20
-1.466794
11
-0.201384
21
-1.487631
0
LINE
8
0
10
-0.201384
20
-1.487631
11
-0.166654
21
-1.29067
0
LINE
8
0
10
-0.166654
20
-1.29067
11
-0.113303
21
-1.295054
0
LINE
8
0
10
-0.549404
20
-1.178201
11
-0.501008
21
-1.20108
0
LINE
8
0
10
-0.501008
20
-1.20108
11
-0.569412
21
-1.389019
0
LINE
8
0
10
-0.569412
20
-1.389019
11
-0.456649
21
-1.430061
0
LINE
8
0
10
-0.456649
20
-1.430061
11
-0.388245
21
-1.242122
0
LINE
8
0
10
-0.388245
20
-1.242122
11
-0.336465
21
-1.255704
0
LINE
8
0
10
-0.74565
20
-1.064898
11
-0.701962
21
-1.095834
0
LINE
8
0
10
-0.701962
20
-1.095834
11
-0.801962
21
-1.269039
0
LINE
8
0
10
-0.801962
20
-1.269039
11
-0.698039
21
-1.329039
0
LINE
8
0
10
-0.698039
20
-1.329039
11
-0.598039
21
-1.155834
0
LINE
8
0
10
-0.598039
20
-1.155834
11
-0.549404
21
-1.178201
0
LINE
8
0
10
-0.919239
20
-0.919239
11
-0.881587
21
-0.957291
0
LINE
8
0
10
-0.881587
20
-0.957291
11
-1.010145
21
-1.1105
0
LINE
8
0
10
-1.010145
20
-1.1105
11
-0.918219
21
-1.187635
0
LINE
8
0
10
-0.918219
20
-1.187635
11
-0.789662
21
-1.034426
0
LINE
8
0
10
-0.789662
20
-1.034426
11
-0.74565
21
-1.064898
0
LINE
8
0
10
-1.064898
20
-0.74565
11
-1.034426
21
-0.789662
0
LINE
8
0
10
-1.034426
20
-0.789662
11
-1.187635
21
-0.918219
0
LINE
8
0
10
-1.187635
20
-0.918219
11
-1.1105
21
-1.010145
0
LINE
8
0
10
-1.1105
20
-1.010145
11
-0.957291
21
-0.881587
0
LINE
8
0
10
-0.957291
20
-0.881587
11
-0.919239
21
-0.919239
0
LINE
8
0
10
-1.178201
20
-0.549404
11
-1.155834
21
-0.598039
0
LINE
8
0
10
-1.155834
20
-0.598039
11
-1.329039
21
-0.698039
0
LINE
8
0
10
-1.329039
20
-0.698039
11
-1.269039
21
-0.801962
0
LINE
8
0
10
-1.269039
20
-0.801962
11
-1.095834
21
-0.701962
0
LINE
8
0
10
-1.095834
20
-0.701962
11
-1.064898
21
-0.74565
0
LINE
8
0
10
-1.255704
20
-0.336465
11
-1.242122
21
-0.388245
0
LINE
8
0
10
-1.242122
20
-0.388245
11
-1.430061
21
-0.456649
0
LINE
8
0
10
-1.430061
20
-0.456649
11
-1.389019
21
-0.569412
0
LINE
8
0
10
-1.389019
20
-0.569412
11
-1.20108
21
-0.501008
0
LINE
8
0
10
-1.20108
20
-0.501008
11
-1.178201
21
-0.549404
0
LINE
8
0
10
-1.295054
20
-0.113303
11
-1.29067
21
-0.166654
0
LINE
8
0
10
-1.29067
20
-0.166654
11
-1.487631
21
-0.201384
0
LINE
8
0
10
-1.487631
20
-0.201384
11
-1.466794
21
-0.319561
0
LINE
8
0
10
-1.466794
20
-0.319561
11
-1.269832
21
-0.284831
0
LINE
8
0
10
-1.269832
20
-0.284831
11
-1.255704
21
-0.336465
0
LINE
8
0
10
-1.295054
20
0.113303
11
-1.300001
21
0.06
0
LINE
8
0
10
-1.300001
20
0.06
11
-1.500001
21
0.06
0
LINE
8
0
10
-1.500001
20
0.06
11
-1.500001
21
-0.06
0
LINE
8
0
10
-1.500001
20
-0.06
11
-1.300001
21
-0.06
0
LINE
8
0
10
-1.300001
20
-0.06
11
-1.295054
21
-0.113303
0
LINE
8
0
10
-1.255704
20
0.336465
11
-1.269832
21
0.284831
0
LINE
8
0
10
-1.269832
20
0.284831
11
-1.466794
21
0.319561
0
LINE
8
0
10
-1.466794
20
0.319561
11
-1.487631
21
0.201384
0
LINE
8
0
10
-1.487631
20
0.201384
11
-1.29067
21
0.166654
0
LINE
8
0
10
-1.29067
20
0.166654
11
-1.295054
21
0.113303
0
LINE
8
0
10
-1.178201
20
0.549404
11
-1.20108
21
0.501008
0
LINE
8
0
10
-1.20108
20
0.501008
11
-1.389019
21
0.569412
0
LINE
8
0
10
-1.389019
20
0.569412
11
-1.430061
21
0.456649
0
LINE
8
0
10
-1.430061
20
0.456649
11
-1.242122
21
0.388245
0
LINE
8
0
10
-1.242122
20
0.388245
11
-1.255704
21
0.336465
0
LINE
8
0
10
-1.064898
20
0.74565
11
-1.095834
21
0.701962
0
LINE
8
0
10
-1.095834
20
0.701962
11
-1.269039
21
0.801962
0
LINE
8
0
10
-1.269039
20
0.801962
11
-1.329039
21
0.698039
0
LINE
8
0
10
-1.329039
20
0.698039
11
-1.155834
21
0.598039
0
LINE
8
0
10
-1.155834
20
0.598039
11
-1.178201
21
0.549404
0
LINE
8
0
10
-0.919239
20
0.919239
11
-0.957291
21
0.881587
0
LINE
8
0
10
-0.957291
20
0.881587
11
-1.1105
21
1.010145
0
LINE
8
0
10
-1.1105
20
1.010145
11
-1.187635
21
0.918219
0
LINE
8
0
10
-1.187635
20
0.918219
11
-1.034426
21
0.789662
0
LINE
8
0
10
-1.034426
20
0.789662
11
-1.064898
21
0.74565
0
LINE
8
0
10
-0.74565
20
1.064898
11
-0.789662
21
1.034426
0
LINE
8
0
10
-0.789662
20
1.034426
11
-0.918219
21
1.187635
0
LINE
8
0
10
-0.918219
20
1.187635
11
-1.010145
21
1.1105
0
LINE
8
0
10
-1.010145
20
1.1105
11
-0.881587
21
0.957291
0
LINE
8
0
10
-0.881587
20
0.957291
11
-0.919239
21
0.919239
0
LINE
8
0
10
-0.549404
20
1.178201
11
-0.598039
21
1.155834
0
LINE
8
0
10
-0.598039
20
1.155834
11
-0.698039
21
1.329039
0
LINE
8
0
10
-0.698039
20
1.329039
11
-0.801962
21
1.269039
0
LINE
8
0
10
-0.801962
20
1.269039
11
-0.701962
21
1.095834
0
LINE
8
0
10
-0.701962
20
1.095834
11
-0.74565
21
1.064898
0
LINE
8
0
10
-0.336465
20
1.255704
11
-0.388245
21
1.242122
0
LINE
8
0
10
-0.388245
20
1.242122
11
-0.456649
21
1.430061
0
LINE
8
0
10
-0.456649
20
1.430061
11
-0.569412
21
1.389019
0
LINE
8
0
10
-0.569412
20
1.389019
11
-0.501008
21
1.20108
0
LINE
8
0
10
-0.501008
20
1.20108
11
-0.549404
21
1.178201
0
LINE
8
0
10
-0.113303
20
1.295054
11
0.113303
21
1.295054
0
LINE
8
0
10
-0.103953
20
0.504895
11
-0.039436
21
0.327635
0
LINE
8
0
10
-0.18039
20
0.276332
11
-0.244907
21
0.453592
0
LINE
8
0
10
-0.198372
20
0.545022
11
-0.193673
21
0.546732
0
LINE
8
0
10
-0.198372
20
0.545022
11
-0.20307
21
0.543312
0
ARC
8
0
10
-0.179129
20
0.477533
40
0.07
50
110
51
200
0
ARC
8
0
10
-0.169732
20
0.480954
40
0.07
50
20
51
110
0
ARC
8
0
10
0
20
0
40
0.33
50
270
51
0
0
ARC
8
0
10
0
20
0
40
0.33
50
0
51
96.86345
0
ARC
8
0
10
0
20
0
40
0.33
50
123.13655
51
180
0
ARC
8
0
10
0
20
0
40
0.33
50
180
51
270
0
ENDSEC
0
EOF